<svg width="320" height="92" viewBox="0 0 320 92" fill="none" xmlns="http://www.w3.org/2000/svg" role="img" aria-labelledby="title desc">
  <title id="title">Global Campus Study Abroad</title>
  <desc id="desc">Global Campus Study Abroad partner logo placeholder.</desc>
  <rect width="320" height="92" rx="10" fill="#fff"/>
  <circle cx="46" cy="46" r="35" fill="#55B9E6"/>
  <path d="M15 50c22-8 43-8 64 0" stroke="#fff" stroke-width="4" stroke-linecap="round"/>
  <path d="M22 24c19 9 36 9 55 0" stroke="#fff" stroke-width="4" stroke-linecap="round"/>
  <path d="M23 70c18-10 37-10 55 0" stroke="#fff" stroke-width="4" stroke-linecap="round"/>
  <path d="M44 12c-10 22-10 47 0 68" stroke="#fff" stroke-width="3" stroke-linecap="round"/>
  <path d="M61 14c-12 21-12 43 0 64" stroke="#fff" stroke-width="3" stroke-linecap="round"/>
  <path d="M12 58c24-5 47-11 68-22" stroke="#d9222a" stroke-width="4" stroke-linecap="round"/>
  <text x="34" y="45" font-family="Arial, Helvetica, sans-serif" font-size="13" font-weight="700" fill="#fff">G-TEC</text>
  <text x="92" y="37" font-family="Arial, Helvetica, sans-serif" font-size="29" font-weight="800" fill="#111">GLOBAL</text>
  <text x="92" y="67" font-family="Arial, Helvetica, sans-serif" font-size="29" font-weight="800" fill="#111">CAMPUS</text>
  <rect x="92" y="72" width="196" height="16" rx="2" fill="#d9222a"/>
  <text x="101" y="85" font-family="Arial, Helvetica, sans-serif" font-size="13" font-weight="800" letter-spacing="2" fill="#fff">STUDY ABROAD</text>
</svg>
