<svg xmlns="http://www.w3.org/2000/svg" width="210" height="70" viewBox="0 0 210 70" role="img" aria-labelledby="title">
  <title>IDP Logo</title>
  <g fill="none" fill-rule="evenodd">
    <path fill="#ff7900" d="M36.5 5.1c12.7 0 24.1 5.2 32.3 13.7-1.7 13.2-13 23.4-26.6 23.4H22.3C14.7 42.2 8.5 36 8.5 28.4c0-12.9 10.5-23.3 28-23.3z"/>
    <path fill="#43b02a" d="M20.6 35.2h20.8c13.4 0 24.5 9.8 26.5 22.6-8.1 7.4-18.9 11.9-30.8 11.9H4.9c0-19 5.1-34.5 15.7-34.5z"/>
    <path fill="#0072ce" d="M61.4 32.5c11.8 0 22.4 5.1 29.7 13.2 0 13.5-11 24.5-24.5 24.5-16.2 0-29.7-11.8-32.3-27.3 6.9-6.4 16.3-10.4 27.1-10.4z"/>
    <path fill="#eef3f5" d="M47.1 24.8c9 0 16.3 7.3 16.3 16.3s-7.3 16.3-16.3 16.3-16.3-7.3-16.3-16.3 7.3-16.3 16.3-16.3z"/>
    <text x="91" y="59" fill="#142331" font-family="Arial Rounded MT Bold, Arial, Helvetica, sans-serif" font-size="62" font-weight="700" letter-spacing="0">idp</text>
  </g>
</svg>
